<svg width="101" height="20" viewBox="0 0 101 20" fill="none" xmlns="http://www.w3.org/2000/svg">
<g clip-path="url(#clip0_1_16)">
<path d="M74.4414 0.162803C74.8062 -0.10549 75.0172 -0.0391696 75.0715 0.361764C74.7037 0.630057 74.4927 0.563736 74.4414 0.162803Z" fill="#FF9600"/>
<path d="M66.4981 3.16223C67.1096 2.90406 67.7703 2.78365 68.4335 2.80953C67.9783 3.5903 66.9835 3.48178 66.2238 3.65963L66.4981 3.16223Z" fill="#FF9600"/>
<path d="M76.624 4.19021C76.9857 3.32504 78.1011 3.61443 78.8396 3.5873C78.4146 4.38012 77.3625 4.11484 76.624 4.19021Z" fill="#FF9600"/>
<path d="M54.024 5.89339C54.1386 4.63331 55.676 4.35598 56.6798 4.64839C56.0618 5.49849 54.9706 5.6462 54.024 5.89339Z" fill="#FF9600"/>
<path d="M71.852 6.21298C72.0874 6.1113 72.3423 6.06264 72.5986 6.07045C72.8549 6.07827 73.1063 6.14237 73.3351 6.25821C72.5272 6.77369 71.5686 6.90331 70.6371 6.96963C70.6914 6.3396 71.3907 6.36672 71.8429 6.21298H71.852Z" fill="#FF9600"/>
<path d="M50.5 7.08111C51.3803 6.58975 50.5784 8.06988 50.5 7.08111Z" fill="#FF9600"/>
<path d="M64.1016 8.296C64.4218 7.93572 64.8145 7.64716 65.254 7.44923C65.6935 7.2513 66.1699 7.14846 66.6519 7.14746C66.2931 7.48786 65.9146 7.80695 65.5184 8.10307C65.645 8.28394 65.7747 8.4618 65.9043 8.64268L65.437 9.47468C66.2537 9.48641 67.0672 9.3715 67.8487 9.13404C67.8276 9.26366 67.7793 9.51991 67.7582 9.64953L68.533 9.90275C66.9794 10.6681 65.3877 11.3533 63.764 11.9556C63.5982 12.4139 64.0503 12.5857 64.394 12.7244C65.3767 12.5103 66.3896 12.6761 67.3543 12.3566V11.5577L68.2978 11.5095C68.2978 11.6693 68.2978 11.9888 68.2767 12.1516C69.2203 11.8109 70.2181 11.6512 71.1646 11.3256C72.0449 10.9759 73.1211 11.0724 73.8144 10.3399C73.7933 10.5539 73.7571 10.982 73.7391 11.196C74.1219 11.2382 74.5078 11.2713 74.8936 11.2924C74.9087 10.9156 74.9268 10.5418 74.9479 10.165C75.3579 10.2585 75.7709 10.3549 76.1899 10.4393L77.0309 10.2765L76.6451 10.578C76.2472 10.6986 75.8462 10.8101 75.4393 10.9036C75.5629 11.2382 75.6985 11.5698 75.8432 11.8984L75.2192 11.8381L75.2433 12.7696C76.1778 12.7696 77.1093 12.7515 78.0408 12.7093L77.9202 13.2037C78.4568 13.3695 78.6889 13.888 78.9844 14.316C80.1389 13.8216 81.2844 14.3462 82.4722 14.2949C82.4722 14.8134 82.4722 15.3289 82.4722 15.8474C83.1143 15.7057 83.7503 15.5309 84.3894 15.3711C84.486 15.2073 84.6168 15.0662 84.7729 14.9575C84.929 14.8487 85.1066 14.7749 85.2938 14.7411C85.5802 14.5331 85.8364 14.2226 86.2283 14.2527C86.3157 14.4185 86.4966 14.7531 86.587 14.9189C87.235 15.007 87.8539 15.2432 88.3957 15.6093C88.8841 15.1179 89.5171 15.2053 90.1351 15.3289C90.2436 15.4344 90.4547 15.6304 90.5602 15.754C91.1028 15.754 91.6454 15.754 92.188 15.754C92.8452 15.133 93.6712 15.754 94.3826 15.9228L94.6328 16.7427L95.4648 16.9115L96.5169 16.4111L96.327 16.7819C96.7131 16.7035 97.1142 16.7532 97.4695 16.9236L97.9397 16.4232L98.4944 17.1376C98.817 16.7789 99.1214 16.4051 99.4229 16.0253L100.246 16.1006V19.697H0.760193V17.005L2.02027 16.5106C2.00218 16.6975 1.96902 17.0743 1.95093 17.2612L2.99999 17.2763C3.17182 16.9748 3.34968 16.6734 3.52754 16.3719C3.7265 16.6221 3.92545 16.8724 4.13044 17.1195C4.4319 16.791 4.73335 16.4503 5.0348 16.1037C5.48397 16.0494 5.93916 15.9861 6.37929 15.9107C6.53303 15.2566 6.76816 14.6114 6.73199 13.9302C7.03344 13.8005 7.35599 13.6739 7.66951 13.5503L7.74186 14.3793C8.15485 14.1412 8.55578 13.885 8.94767 13.6347C9.04413 13.7945 9.24912 14.1141 9.34257 14.2738C10.1171 14.106 10.8764 13.8741 11.6125 13.5805C11.5801 13.0982 11.4786 12.6231 11.3111 12.1697L11.7693 12.0129C11.9607 12.5243 12.2159 13.0095 12.5289 13.4569C13.6956 12.7756 15.1124 12.3264 15.8449 11.1116C15.8449 11.3196 15.7997 11.7386 15.7876 11.9466C16.2157 11.8712 16.6468 11.8109 17.0809 11.7748C16.3604 12.2903 15.3566 11.8863 14.6693 12.4681C14.5605 12.5144 14.4678 12.5917 14.4026 12.6903C14.3374 12.789 14.3026 12.9046 14.3026 13.0228C14.3026 13.141 14.3374 13.2566 14.4026 13.3552C14.4678 13.4539 14.5605 13.5311 14.6693 13.5775C14.6451 13.9 14.624 14.2256 14.5999 14.5512L15.3144 14.3552L15.23 15.0094C16.1856 14.5934 16.8397 13.5775 17.943 13.5503C17.943 13.3695 17.8978 13.0077 17.8797 12.8268C18.7301 12.5243 19.5231 12.0799 20.225 11.5125C20.3577 12.1154 20.5265 12.7183 20.6923 13.3212C21.2138 13.3212 21.7323 13.3423 22.2538 13.3514C22.2436 13.1449 22.1722 12.9461 22.0488 12.7802C21.9253 12.6144 21.7554 12.489 21.5605 12.4199L22.3714 12.1606C22.1001 11.4703 22.7301 11.3226 23.2336 11.1447C23.3813 11.3527 23.6827 11.7657 23.8365 11.9737C24.2384 11.7728 24.6303 11.5537 25.0121 11.3166C25.4311 11.1749 25.8472 11.0332 26.2692 10.8975C26.3054 9.76106 27.5534 10.2102 28.2799 10.171C27.7734 10.2283 27.267 10.2675 26.7726 10.3097C26.8148 11.2141 27.5956 10.8463 28.102 10.8855L28.1563 10.988C27.8036 11.0211 27.4479 11.0543 27.0952 11.0935C27.0771 11.6795 26.8443 12.2385 26.441 12.6641C26.4199 12.4621 26.3747 12.0612 26.3536 11.8592C25.7507 11.8743 25.1689 11.8863 24.575 11.8893V12.5284L23.6707 12.4953C23.6857 12.655 23.7219 12.9715 23.737 13.1313L24.4575 13.6709L25.1026 13.49C25.6271 13.686 26.7334 13.3333 26.4621 14.2738H27.7674C27.8367 13.3996 28.7682 13.5925 29.3802 13.6709C29.4224 13.2187 29.4736 12.7666 29.5339 12.3204C30.0163 12.4319 30.5016 12.5405 30.9869 12.646L30.0374 12.7756C29.8927 13.1705 29.7359 13.5684 29.6213 13.9814C31.2552 13.9814 32.8921 13.7915 34.517 14.0085L34.5531 13.1373L35.0023 14.0236C35.569 13.6257 36.178 13.2881 36.8954 13.3273C37.0612 13.5895 37.23 13.8518 37.3988 14.111C36.9497 14.0658 36.4945 14.0266 36.0453 13.9844C36.0453 14.1894 36.0453 14.5873 36.0453 14.8044C36.4191 14.9039 36.7929 15.0214 37.1607 15.1541H37.6159C38.0764 14.9212 38.5709 14.7624 39.081 14.6838C39.0388 14.2286 38.9905 13.7794 38.9242 13.3212C39.2126 13.0371 39.5535 12.8118 39.928 12.658C39.9431 12.2179 39.9642 11.7808 39.9913 11.3437C40.4164 11.4582 40.8475 11.5728 41.2665 11.7175L40.1059 11.6572C40.329 11.9587 40.5671 12.2601 40.8113 12.5616L41.9056 12.1817L41.0826 12.7123C41.3569 13.2609 41.6855 13.7885 41.9297 14.3522C42.6412 14.0469 43.4292 13.967 44.1876 14.1231C44.3564 13.7403 44.5252 13.8216 44.6488 14.2859L45.9782 14.307L46.0174 13.8307L46.6927 13.9633C47.1237 13.7553 47.5729 13.5805 48.0191 13.3996C48.0462 13.6197 48.1035 14.0598 48.1306 14.2768L48.8541 14.5301C48.8058 14.7742 48.7064 15.2626 48.6551 15.5068H49.8971C49.8971 15.3289 49.8609 14.9762 49.8459 14.8014L50.9371 15.1028L51.4797 14.3703C51.4014 14.9099 51.2928 15.4435 51.1783 15.974C51.5219 15.7389 51.8566 15.4887 52.1821 15.2234L52.8905 15.145C52.8905 14.9099 52.8905 14.4457 52.9086 14.2105L52.4353 14.512L52.5288 14.1532L51.4647 13.5654L52.6313 13.8669L52.6072 13.4117L51.6094 13.3122C51.9013 13.092 52.2347 12.9332 52.5895 12.8451C52.9444 12.757 53.3134 12.7416 53.6743 12.7997C53.8853 12.2812 53.5146 11.8743 53.1769 11.5276C53.6804 11.7838 54.1506 12.1003 54.648 12.3747C54.3654 12.4469 54.1174 12.6165 53.9476 12.8536C53.7777 13.0907 53.697 13.3801 53.7195 13.6709C54.2833 13.6438 54.85 13.6076 55.4197 13.6016C55.7785 14.4517 56.3693 13.5714 56.8215 13.3936C56.7612 13.1162 56.71 12.8389 56.6678 12.5616C57.3877 12.8008 58.0924 13.0837 58.7779 13.4087C59.2643 13.1427 59.6782 12.7618 59.9837 12.2993C60.8278 11.6331 61.6508 10.9307 62.4406 10.1891L61.6779 10.1108C61.9643 9.96003 62.2507 9.80929 62.5401 9.66158C62.5401 9.47468 62.5159 9.1039 62.5099 8.92001C63.0344 8.70899 63.559 8.49797 64.0895 8.29902L64.1016 8.296Z" fill="#FF9600"/>
<path d="M59.1758 8.29903C59.6357 7.94141 60.143 7.64923 60.6831 7.43085L60.8368 7.88002C60.3033 8.08335 59.7479 8.22396 59.1819 8.29903H59.1758Z" fill="#FF9600"/>
<path d="M70.9506 8.32918C71.8791 8.16338 72.6629 7.61172 73.522 7.25299C73.4919 7.77752 73.4406 8.29903 73.4497 8.82356L73.1 8.88988C73.1 8.71805 73.1 8.3744 73.1 8.20257C72.3011 8.06088 71.6319 8.61857 71.9213 9.44757H71.5264C71.5475 9.29684 71.5867 8.99238 71.6078 8.84466C71.0049 8.87481 70.402 8.89592 69.7991 8.86879C70.1349 8.60229 70.5281 8.41755 70.9476 8.32918H70.9506Z" fill="#FF9600"/>
<path d="M21.3133 7.64487C22.2177 7.25298 21.247 8.65775 21.3133 7.64487Z" fill="#FF9600"/>
<path d="M26.6008 8.74214C26.5676 8.35025 26.4651 7.64183 26.9987 7.55139C27.7584 7.71719 27.065 8.69089 26.6008 8.74214Z" fill="#FF9600"/>
<path d="M22.7904 9.20942C22.0549 9.33301 21.7655 8.41961 22.5221 8.22668L23.125 9.07979L22.9411 9.49278C23.4687 9.55609 24.1469 9.49279 24.0716 8.79342C24.7408 8.58843 25.4191 8.41961 26.0913 8.22668C25.8411 8.52814 25.5909 8.85371 25.3588 9.17928L24.7559 9.25765C24.153 9.73998 23.3481 9.65858 22.6457 9.86056L22.8175 9.21243L22.7904 9.20942Z" fill="#FF9600"/>
<path d="M89.1222 8.7783C89.2338 8.40751 89.4809 8.35023 89.8668 8.60647C89.7462 8.97424 89.499 9.03152 89.1222 8.7783Z" fill="#FF9600"/>
<path d="M16.1675 9.40234C16.065 9.01045 16.701 8.72709 16.9995 8.90494C17.0899 9.27875 16.4629 9.58321 16.1675 9.40234Z" fill="#FF9600"/>
<path d="M33.073 8.89288L33.275 8.89891L33.2719 9.09787H33.07L33.073 8.89288Z" fill="#FF9600"/>
<path d="M48.7245 8.87779C49.5806 8.3412 48.8541 9.86957 48.7245 8.87779Z" fill="#FF9600"/>
<path d="M59.2753 9.34503C59.7908 9.34503 60.0259 9.61634 59.9023 10.1379C60.445 10.0052 60.8791 9.64046 61.3885 9.42341C61.1715 10.5117 59.9626 10.7287 59.1457 11.214C59.203 10.5931 59.2422 9.96904 59.2753 9.34503Z" fill="#FF9600"/>
<path d="M13.9005 11.0815C14.1025 10.6052 14.2743 9.99019 14.8863 9.92688C14.6783 10.5298 14.6029 11.2201 14.1507 11.7175C13.7408 11.6994 13.2464 11.7688 12.963 11.3859L13.9005 11.0845V11.0815Z" fill="#FF9600"/>
<path d="M28.8285 10.0957C29.6846 10.4152 30.6372 10.3308 31.4753 10.6534L32.247 10.4966C32.1927 10.7318 32.1385 10.9669 32.0872 11.202L31.0532 11.4492C30.9544 11.1249 30.8386 10.8059 30.7066 10.4936C30.0404 10.566 29.35 10.566 28.8285 10.0957Z" fill="#FF9600"/>
<path d="M83.7473 10.6021C84.0819 10.4303 84.4286 10.2766 84.7692 10.1138L84.4678 10.9428H85.4415L85.5018 11.5728L84.1754 11.5517C84.2628 11.823 84.3532 12.0913 84.4497 12.3596L83.5634 12.4681C83.9734 11.5818 83.1022 11.0724 82.3214 11.3497C81.9271 11.5342 81.4995 11.6367 81.0644 11.6512C81.3658 11.2171 81.7306 10.8493 82.2883 10.8342C82.7224 10.4936 83.2137 10.2977 83.7352 10.6051L83.7473 10.6021Z" fill="#FF9600"/>
<path d="M24.3459 10.4092C24.6986 10.1379 24.9096 10.2012 24.979 10.5961C24.6202 10.8765 24.4122 10.8162 24.3459 10.4092Z" fill="#FF9600"/>
<path d="M41.0585 11.0573C41.2213 10.6172 41.9478 10.8704 42.2372 11.0784L42.2191 11.1839C41.8935 11.398 41.2665 11.4613 41.0585 11.0573Z" fill="#FF9600"/>
<path d="M11.6427 11.3949C11.6186 10.9488 12.3752 10.6775 12.7128 10.9307C12.7128 11.3919 11.9863 11.4884 11.6427 11.3949Z" fill="#FF9600"/>
<path d="M42.4331 11.5819C42.8883 11.4854 43.4189 11.7477 43.7927 11.9979C43.66 12.5556 42.2311 12.1607 42.4331 11.5819Z" fill="#FF9600"/>
<path d="M56.6738 11.5909C57.5782 11.1206 56.7461 12.5646 56.6738 11.5909Z" fill="#FF9600"/>
<path d="M80.9227 12.6399C81.1608 12.1124 81.7728 12.1938 82.2521 12.1727C82.032 12.7605 81.402 12.6128 80.9227 12.6399Z" fill="#FF9600"/>
<path d="M84.8386 12.6611C85.0763 12.4976 85.358 12.4101 85.6465 12.4101C85.9349 12.4101 86.2166 12.4976 86.4544 12.6611C86.2029 12.7845 85.9266 12.8487 85.6465 12.8487C85.3664 12.8487 85.09 12.7845 84.8386 12.6611Z" fill="#FF9600"/>
<path d="M48.9385 12.7635H49.2942V13.1976C49.8193 13.2774 50.3396 13.3861 50.8527 13.5232C50.3397 13.68 49.7997 13.7283 49.2671 13.6649C49.1555 13.3634 49.047 13.062 48.9385 12.7605V12.7635Z" fill="#FF9600"/>
<path d="M82.6561 13.9543C82.6289 12.9927 83.6328 14.0719 83.5423 14.4818C83.396 14.5129 83.2439 14.5029 83.1029 14.4528C82.962 14.4028 82.8376 14.3148 82.7435 14.1985L82.6561 13.9543Z" fill="#FF9600"/>
<path d="M88.4832 14.0326C89.8578 13.3755 91.1571 14.2979 92.4955 14.53C91.8926 15.2566 90.8315 14.8104 90.1502 14.4306C89.5865 14.3251 89.0318 14.1894 88.4832 14.0326Z" fill="#FF9600"/>
<path d="M94.886 13.9603C95.5281 13.9392 96.2637 13.9241 96.7551 14.4125C96.1099 14.4125 95.3804 14.4698 94.886 13.9603Z" fill="#FF9600"/>
</g>
<defs>
<clipPath id="clip0_1_16">
<rect width="99.4796" height="19.697" fill="white" transform="translate(0.760193)"/>
</clipPath>
</defs>
</svg>
